<svg id="Capa_1" enable-background="new 0 0 512 512" height="512" viewBox="0 0 512 512" width="512" xmlns="http://www.w3.org/2000/svg"><g><g><path d="m405.895 512h-299.791c-14.193 0-25.698-11.505-25.698-25.698v-460.604c0-14.193 11.506-25.698 25.698-25.698h299.791c14.193 0 25.698 11.505 25.698 25.698v460.604c.001 14.193-11.505 25.698-25.698 25.698z" fill="#595959"/></g><g><path d="m405.763 0h-.687v459.652c0 14.266-11.565 25.831-25.831 25.831h-298.839v.687c0 14.266 11.565 25.831 25.831 25.831h299.525c14.266 0 25.831-11.565 25.831-25.831v-460.339c.001-14.266-11.564-25.831-25.83-25.831z" fill="#434343"/></g><g><path d="m384.874 437.16h-257.748c-2.761 0-5-2.239-5-5v-384.234c0-2.761 2.239-5 5-5h257.747c2.761 0 5 2.239 5 5v384.234c.001 2.761-2.238 5-4.999 5z" fill="#e8f3ff"/></g><g><path d="m384.848 42.926h-17.328v366.854c0 2.776-2.25 5.026-5.026 5.026h-240.368v17.328c0 2.776 2.25 5.026 5.026 5.026h257.696c2.776 0 5.026-2.25 5.026-5.026v-384.182c0-2.776-2.25-5.026-5.026-5.026z" fill="#c1e2ff"/></g><g><circle cx="256" cy="475.073" fill="#434343" r="14.889"/></g><g><path d="m208.06 325.18c-3.123 0-5.923-1.925-7.04-4.842l-17.161-44.799h-27.055c-4.164 0-7.539-3.375-7.539-7.539 0-4.163 3.375-7.539 7.539-7.539h32.24c3.123 0 5.923 1.925 7.04 4.842l11.976 31.263 35.597-92.928c1.117-2.917 3.917-4.842 7.04-4.842s5.923 1.925 7.04 4.842l26.388 68.885 17.051-44.512c1.117-2.916 3.917-4.842 7.04-4.842 3.124 0 5.923 1.925 7.04 4.842l12.413 32.406h29.058c4.164 0 7.539 3.375 7.539 7.539s-3.375 7.539-7.539 7.539h-34.242c-3.124 0-5.923-1.925-7.04-4.842l-7.229-18.87-17.051 44.512c-1.117 2.917-3.917 4.842-7.04 4.842-3.124 0-5.923-1.925-7.04-4.842l-26.388-68.885-35.597 92.927c-1.117 2.917-3.916 4.843-7.04 4.843z" fill="#1690fb"/></g><g><path d="m205.823 175.077h-46.478c-1.711 0-3.099-1.387-3.099-3.099v-53.876c0-1.711 1.387-3.099 3.099-3.099h43.38c1.711 0 3.099 1.387 3.099 3.099v56.975z" fill="#d5b0ec"/></g><g><path d="m304.977 175.077h-49.577v-72.326c0-1.72 1.395-3.115 3.115-3.115h43.348c1.72 0 3.115 1.395 3.115 3.115v72.326z" fill="#62b4fd"/></g><g><path d="m205.823 124.148h49.577v50.929h-49.577z" fill="#fbbe66"/></g><g><path d="m351.455 175.077h-46.478v-26.207h46.478c1.711 0 3.099 1.387 3.099 3.099v20.01c0 1.711-1.387 3.098-3.099 3.098z" fill="#ffa698"/></g><g><circle cx="173.953" cy="377.352" fill="#6df3bf" r="23.747"/></g><g><circle cx="283.683" cy="377.352" fill="#d5b0ec" r="23.747"/></g><path d="m182.553 355.217c1.037 2.667 1.612 5.566 1.612 8.6 0 13.115-10.632 23.747-23.747 23.747-3.034 0-5.932-.575-8.6-1.612 3.446 8.863 12.054 15.147 22.135 15.147 13.115 0 23.747-10.632 23.747-23.747 0-10.081-6.284-18.688-15.147-22.135z" fill="#05e29a"/><path d="m292.283 355.217c1.037 2.667 1.613 5.566 1.613 8.6 0 13.115-10.632 23.747-23.747 23.747-3.034 0-5.932-.575-8.6-1.612 3.446 8.863 12.054 15.147 22.135 15.147 13.115 0 23.747-10.632 23.747-23.747-.001-10.081-6.285-18.688-15.148-22.135z" fill="#ae66d8"/><g><g><path d="m232.444 371.321h-16.023c-4.164 0-7.539-3.375-7.539-7.539s3.375-7.539 7.539-7.539h16.023c4.164 0 7.539 3.375 7.539 7.539s-3.375 7.539-7.539 7.539z" fill="#62b4fd"/></g><g><path d="m232.444 401.225h-16.023c-4.164 0-7.539-3.375-7.539-7.539 0-4.163 3.375-7.539 7.539-7.539h16.023c4.164 0 7.539 3.375 7.539 7.539s-3.375 7.539-7.539 7.539z" fill="#62b4fd"/></g><g><path d="m342.175 371.321h-16.023c-4.164 0-7.539-3.375-7.539-7.539s3.375-7.539 7.539-7.539h16.023c4.164 0 7.539 3.375 7.539 7.539-.001 4.164-3.375 7.539-7.539 7.539z" fill="#62b4fd"/></g><g><path d="m342.175 401.225h-16.023c-4.164 0-7.539-3.375-7.539-7.539 0-4.163 3.375-7.539 7.539-7.539h16.023c4.164 0 7.539 3.375 7.539 7.539-.001 4.164-3.375 7.539-7.539 7.539z" fill="#62b4fd"/></g></g></g></svg>