<?xml version="1.0" encoding="iso-8859-1"?>
<!-- Generator: Adobe Illustrator 19.0.0, SVG Export Plug-In . SVG Version: 6.00 Build 0)  -->
<svg version="1.1" id="Capa_1" xmlns="http://www.w3.org/2000/svg" xmlns:xlink="http://www.w3.org/1999/xlink" x="0px" y="0px"
	 viewBox="0 0 512 512" style="enable-background:new 0 0 512 512;" xml:space="preserve">
<path style="fill:#CAE8F9;" d="M470.3,119.4H35.098L0,149.4V467c0,12.299,5.098,23.699,13.198,31.8
	C21.299,506.899,32.703,512,45,512h422c12.297,0,23.701-5.101,31.802-13.2c8.1-8.101,13.198-19.501,13.198-31.8V149.4L470.3,119.4z"
	/>
<path style="fill:#B7E0F6;" d="M512,149.4V467c0,12.299-5.098,23.699-13.198,31.8C490.701,506.899,479.297,512,467,512H256V119.4
	h214.3L512,149.4z"/>
<path style="fill:#787780;" d="M467,0H45C20.098,0,0,20.099,0,45v104.4h512V45C512,20.099,491.902,0,467,0z"/>
<path style="fill:#57555C;" d="M512,45v104.4H256V0h211C491.902,0,512,20.099,512,45z"/>
<g>
	<circle style="fill:#FEDB41;" cx="75" cy="75" r="15"/>
	<circle style="fill:#FEDB41;" cx="135" cy="75" r="15"/>
	<circle style="fill:#FEDB41;" cx="195" cy="75" r="15"/>
</g>
<path d="M437,90h-60c-8.291,0-15-6.709-15-15s6.709-15,15-15h60c8.291,0,15,6.709,15,15S445.291,90,437,90z"/>
<path style="fill:#FCBF29;" d="M437,90h-60c-8.291,0-15-6.709-15-15s6.709-15,15-15h60c8.291,0,15,6.709,15,15S445.291,90,437,90z"
	/>
<g>
	<path style="fill:#32D736;" d="M240,226c0,8.291-6.709,15-15,15H75c-8.291,0-15-6.709-15-15s6.709-15,15-15h150
		C233.291,211,240,217.709,240,226z"/>
	<path style="fill:#32D736;" d="M180,316c0,8.291-6.709,15-15,15H75c-8.291,0-15-6.709-15-15s6.709-15,15-15h90
		C173.291,301,180,307.709,180,316z"/>
	<path style="fill:#32D736;" d="M165,421H75c-8.291,0-15-6.709-15-15s6.709-15,15-15h90c8.291,0,15,6.709,15,15S173.291,421,165,421
		z"/>
</g>
<path style="fill:#FEDB41;" d="M296.203,356.8L274,338.2l-31.499,12l-0.3,0.298l-4.801,6c-4.501,5.4-7.5,11.4-9.598,18.6
	L214,433.598c-1.198,5.4,0.601,11.1,5.101,14.7c4.797,4.2,11.4,4.501,15.601,2.401l54.899-24
	c6.302-2.701,12.301-6.901,16.498-12.301l5.105-6.299l2.695-36.601L296.203,356.8z"/>
<path style="fill:#787780;" d="M452.602,219.699c-0.901-11.999-6.699-22.8-15.401-30c-9.302-7.8-20.702-11.4-32.703-10.499
	c-11.997,0.899-23.101,6.599-30.601,15.899l-9.899,11.7l-3.9,35.7l19.2,15.899l21.603,18.301l32.098-12.301l9.598-11.1
	c0-0.3,0-0.3,0-0.3C450.399,243.699,453.799,231.7,452.602,219.699z"/>
<path style="fill:#FCBF29;" d="M296.203,356.8l17.695,14.7l-2.695,36.601l-5.105,6.299c-4.197,5.4-10.195,9.6-16.498,12.301
	l-54.899,24c-4.2,2.1-10.803,1.8-15.601-2.401L296.203,356.8z"/>
<path style="fill:#57555C;" d="M442.599,252.999c0,0,0,0,0,0.3l-9.598,11.1L400.902,276.7L379.3,258.399l57.902-68.699
	c8.701,7.2,14.5,18.001,15.401,30C453.799,231.7,450.399,243.699,442.599,252.999z"/>
<path style="fill:#FD3C65;" d="M398.5,235.6l-0.01-0.01L364,206.8L242.2,350.5l34.8,29.1l0.02,0.02l34.18,28.48L433,264.4
	L398.5,235.6z"/>
<polygon style="fill:#FD003A;" points="433,264.4 311.2,408.1 277.02,379.62 398.49,235.59 398.5,235.6 "/>
<g>
</g>
<g>
</g>
<g>
</g>
<g>
</g>
<g>
</g>
<g>
</g>
<g>
</g>
<g>
</g>
<g>
</g>
<g>
</g>
<g>
</g>
<g>
</g>
<g>
</g>
<g>
</g>
<g>
</g>
</svg>
