<svg id="Layer_1" enable-background="new 0 0 64 64" height="512" viewBox="0 0 64 64" width="512" xmlns="http://www.w3.org/2000/svg"><g><g><g><path d="m25.5 24h-.343c-1.782 0-2.674-2.154-1.414-3.414l.243-.243c.391-.391.391-1.024 0-1.414l-1.414-1.414c-.195-.195-.451-.293-.707-.293h-4c-.044 0-.086.019-.13.025-.137-.267-.234-.563-.234-.904v-.343c0-.552-.448-1-1-1h-2-2-2c-.552 0-1 .448-1 1v.343c0 .341-.097.637-.234.904-.044-.006-.086-.025-.13-.025h-4c-.256 0-.512.098-.707.293l-1.414 1.414c-.391.391-.391 1.024 0 1.414l.243.243c1.258 1.26.366 3.414-1.416 3.414h-.343c-.552 0-1 .448-1 1v2c0 .552.448 1 1 1h.343c1.782 0 2.674 2.154 1.414 3.414l-.243.243c-.391.391-.391 1.024 0 1.414l1.414 1.414c.195.195.451.293.707.293h4c.044 0 .086-.019.13-.025.138.267.235.563.235.904v.343c0 .552.448 1 1 1h2 2 2c.552 0 1-.448 1-1v-.343c0-.341.097-.637.234-.904.044.006.086.025.13.025h4c.256 0 .512-.098.707-.293l1.414-1.414c.391-.391.391-1.024 0-1.414l-.243-.243c-1.259-1.26-.367-3.414 1.415-3.414h.343c.552 0 1-.448 1-1v-2c0-.552-.448-1-1-1zm-15.5 2c0-2.331 1.453-4.319 3.5-5.119 2.047.8 3.5 2.788 3.5 5.119s-1.453 4.319-3.5 5.119c-2.047-.8-3.5-2.788-3.5-5.119z" fill="#f68820"/></g><g><path d="m21.5 24h-.343c-1.782 0-2.674-2.154-1.414-3.414l.243-.243c.391-.391.391-1.024 0-1.414l-1.414-1.414c-.391-.391-1.024-.391-1.414 0l-.243.243c-1.26 1.26-3.414.368-3.414-1.414v-.344c0-.552-.448-1-1-1h-2c-.552 0-1 .448-1 1v.343c0 1.782-2.154 2.674-3.414 1.414l-.243-.243c-.391-.391-1.024-.391-1.414 0l-1.414 1.414c-.391.391-.391 1.024 0 1.414l.243.243c1.258 1.261.366 3.415-1.416 3.415h-.343c-.552 0-1 .448-1 1v2c0 .552.448 1 1 1h.343c1.782 0 2.674 2.154 1.414 3.414l-.243.243c-.391.391-.391 1.024 0 1.414l1.414 1.414c.391.391 1.024.391 1.414 0l.243-.243c1.26-1.26 3.414-.368 3.414 1.414v.344c0 .552.448 1 1 1h2c.552 0 1-.448 1-1v-.343c0-1.782 2.154-2.674 3.414-1.414l.243.243c.391.391 1.024.391 1.414 0l1.414-1.414c.391-.391.391-1.024 0-1.414l-.243-.243c-1.258-1.261-.366-3.415 1.416-3.415h.343c.552 0 1-.448 1-1v-2c0-.552-.448-1-1-1zm-10 7.5c-3.038 0-5.5-2.462-5.5-5.5s2.462-5.5 5.5-5.5 5.5 2.462 5.5 5.5-2.462 5.5-5.5 5.5z" fill="#fbbe18"/></g></g><g><g><path d="m44 12.5h-.343c-1.782 0-2.674-2.154-1.414-3.414l.243-.243c.391-.391.391-1.024 0-1.414l-1.414-1.414c-.195-.195-.451-.293-.707-.293h-4c-.044 0-.086.019-.13.025-.138-.267-.235-.563-.235-.904v-.343c0-.552-.448-1-1-1h-2-2-2c-.552 0-1 .448-1 1v.343c0 .341-.097.637-.234.904-.044-.006-.086-.025-.13-.025h-4c-.256 0-.512.098-.707.293l-1.414 1.414c-.391.391-.391 1.024 0 1.414l.243.243c1.26 1.26.368 3.414-1.414 3.414h-.344c-.552 0-1 .448-1 1v2c0 .552.448 1 1 1h.343c1.782 0 2.674 2.154 1.414 3.414l-.243.243c-.391.391-.391 1.024 0 1.414l1.414 1.414c.195.195.451.293.707.293h4c.044 0 .086-.019.13-.025.138.267.235.563.235.904v.343c0 .552.448 1 1 1h2 2 2c.552 0 1-.448 1-1v-.343c0-.341.097-.637.234-.904.044.006.086.025.13.025h4c.256 0 .512-.098.707-.293l1.414-1.414c.391-.391.391-1.024 0-1.414l-.243-.243c-1.26-1.26-.368-3.414 1.414-3.414h.344c.552 0 1-.448 1-1v-2c0-.552-.448-1-1-1zm-15.5 2c0-2.331 1.453-4.319 3.5-5.119 2.047.801 3.5 2.788 3.5 5.119s-1.453 4.319-3.5 5.119c-2.047-.8-3.5-2.788-3.5-5.119z" fill="#5c76b2"/></g><g><path d="m40 12.5h-.343c-1.782 0-2.674-2.154-1.414-3.414l.243-.243c.391-.391.391-1.024 0-1.414l-1.414-1.414c-.391-.391-1.024-.391-1.414 0l-.243.243c-1.261 1.259-3.415.367-3.415-1.415v-.343c0-.552-.448-1-1-1h-2c-.552 0-1 .448-1 1v.343c0 1.782-2.154 2.674-3.414 1.414l-.243-.243c-.391-.391-1.024-.391-1.414 0l-1.414 1.414c-.391.391-.391 1.024 0 1.414l.243.243c1.26 1.26.368 3.414-1.414 3.414h-.344c-.552 0-1 .448-1 1v2c0 .552.448 1 1 1h.343c1.782 0 2.674 2.154 1.414 3.414l-.243.243c-.391.391-.391 1.024 0 1.414l1.414 1.414c.391.391 1.024.391 1.414 0l.243-.243c1.26-1.26 3.414-.368 3.414 1.414v.345c0 .552.448 1 1 1h2c.552 0 1-.448 1-1v-.343c0-1.782 2.154-2.674 3.414-1.414l.243.243c.391.391 1.024.391 1.414 0l1.414-1.414c.391-.391.391-1.024 0-1.414l-.243-.243c-1.26-1.26-.368-3.414 1.414-3.414h.345c.552 0 1-.448 1-1v-2c0-.553-.448-1.001-1-1.001zm-10 7.5c-3.038 0-5.5-2.462-5.5-5.5s2.462-5.5 5.5-5.5 5.5 2.462 5.5 5.5-2.462 5.5-5.5 5.5z" fill="#6fa4d8"/></g></g><g><g><path d="m62.5 24h-.343c-1.782 0-2.674-2.154-1.414-3.414l.243-.243c.391-.391.391-1.024 0-1.414l-1.414-1.414c-.195-.195-.451-.293-.707-.293h-4c-.044 0-.086.019-.13.025-.137-.267-.234-.563-.234-.904v-.343c0-.552-.448-1-1-1h-2-2-2c-.552 0-1 .448-1 1v.343c0 .341-.097.637-.234.904-.044-.006-.086-.025-.13-.025h-4c-.256 0-.512.098-.707.293l-1.414 1.414c-.391.391-.391 1.024 0 1.414l.243.243c1.26 1.26.368 3.414-1.414 3.414h-.345c-.552 0-1 .448-1 1v2c0 .552.448 1 1 1h.343c1.782 0 2.674 2.154 1.414 3.414l-.243.243c-.391.391-.391 1.024 0 1.414l1.414 1.414c.195.195.451.293.707.293h4c.044 0 .086-.019.13-.025.137.267.234.563.234.904v.343c0 .552.448 1 1 1h2 2 2c.552 0 1-.448 1-1v-.343c0-.341.097-.637.234-.904.044.006.086.025.13.025h4c.256 0 .512-.098.707-.293l1.414-1.414c.391-.391.391-1.024 0-1.414l-.243-.243c-1.258-1.26-.366-3.414 1.416-3.414h.343c.552 0 1-.448 1-1v-2c0-.552-.448-1-1-1zm-15.5 2c0-2.331 1.453-4.319 3.5-5.119 2.047.8 3.5 2.788 3.5 5.119s-1.453 4.319-3.5 5.119c-2.047-.8-3.5-2.788-3.5-5.119z" fill="#5c76b2"/></g><g><path d="m58.5 24h-.343c-1.782 0-2.674-2.154-1.414-3.414l.243-.243c.391-.391.391-1.024 0-1.414l-1.414-1.414c-.391-.391-1.024-.391-1.414 0l-.243.243c-1.26 1.26-3.414.368-3.414-1.414v-.344c0-.552-.448-1-1-1h-2c-.552 0-1 .448-1 1v.343c0 1.782-2.154 2.674-3.414 1.414l-.243-.243c-.391-.391-1.024-.391-1.414 0l-1.414 1.414c-.391.391-.391 1.024 0 1.414l.243.243c1.26 1.26.368 3.414-1.414 3.414h-.345c-.552 0-1 .448-1 1v2c0 .552.448 1 1 1h.343c1.782 0 2.674 2.154 1.414 3.414l-.243.243c-.391.391-.391 1.024 0 1.414l1.414 1.414c.391.391 1.024.391 1.414 0l.243-.243c1.26-1.26 3.414-.368 3.414 1.414v.345c0 .552.448 1 1 1h2c.552 0 1-.448 1-1v-.343c0-1.782 2.154-2.674 3.414-1.414l.243.243c.391.391 1.024.391 1.414 0l1.414-1.414c.391-.391.391-1.024 0-1.414l-.243-.243c-1.258-1.261-.366-3.415 1.416-3.415h.343c.552 0 1-.448 1-1v-2c0-.552-.448-1-1-1zm-10 7.5c-3.038 0-5.5-2.462-5.5-5.5s2.462-5.5 5.5-5.5 5.5 2.462 5.5 5.5-2.462 5.5-5.5 5.5z" fill="#6fa4d8"/></g></g><path d="m14.5 26c0-1.657-1.343-3-3-3s-3 1.343-3 3c0 1.304.837 2.403 2 2.816v16.184h2v-16.184c1.163-.413 2-1.512 2-2.816z" fill="#6fa4d8"/><g><g><g><path d="m46.5 40c-3.314 0-6 2.686-6 6v8c0 1.104.895 2 2 2h3.5v2h6.5v-12c0-3.314-2.686-6-6-6z" fill="#eec78e"/></g><g><path d="m41.75 52c.69 0 1.25-.56 1.25-1.25v-2.75c-1.381 0-2.5 1.119-2.5 2.5v.25c0 .69.56 1.25 1.25 1.25z" fill="#db9e68"/></g><g><circle cx="44.5" cy="47.5" fill="#55525b" r=".5"/></g><g><circle cx="41.5" cy="47.5" fill="#55525b" r=".5"/></g><g><path d="m46 58h6.5c0-1.105-.895-2-2-2h-4.5z" fill="#db9e68"/></g><g><path d="m41.5 53h3c0 .552-.448 1-1 1h-1c-.552 0-1-.448-1-1z" fill="#55525b"/></g></g><g><path d="m41.5 38h7c3.314 0 6 2.686 6 6v8c0 1.105-.895 2-2 2h-2c-1.105 0-2-.895-2-2v-3h-.5c-.828 0-1.5-.672-1.5-1.5v-2c0-.828-.672-1.5-1.5-1.5h-3.5c-1.657 0-3-1.343-3-3 0-1.657 1.343-3 3-3z" fill="#f68820"/></g><g><path d="m48.5 48c1.105 0 2 .895 2 2s-.895 2-2 2z" fill="#db9e68"/></g><g><path d="m52.5 58h-9c-1.657 0-3 1.343-3 3v3h15v-3c0-1.657-1.343-3-3-3z" fill="#5c76b2"/></g><g><path d="m52.5 58c1.657 0 3 1.343 3 3v3h-6v-3c0-1.657 1.343-3 3-3z" fill="#6fa4d8"/></g></g><g><g><g><path d="m12.5 40c-3.314 0-6 2.686-6 6v12h6.5v-2h3.5c1.105 0 2-.896 2-2v-8c0-3.314-2.686-6-6-6z" fill="#eec78e"/></g><g><path d="m17.25 52c-.69 0-1.25-.56-1.25-1.25v-2.75c1.381 0 2.5 1.119 2.5 2.5v.25c0 .69-.56 1.25-1.25 1.25z" fill="#db9e68"/></g><g><circle cx="14.5" cy="47.5" fill="#55525b" r=".5"/></g><g><circle cx="17.5" cy="47.5" fill="#55525b" r=".5"/></g><g><path d="m13 58h-6.5c0-1.105.895-2 2-2h4.5z" fill="#db9e68"/></g><g><path d="m17.5 53h-3c0 .552.448 1 1 1h1c.552 0 1-.448 1-1z" fill="#55525b"/></g></g><g><path d="m10.5 38h3c3.314 0 6 2.686 6 6h-5.5c-.828 0-1.5.672-1.5 1.5v1c0 .828-.672 1.5-1.5 1.5h-.5v8c0 1.105.895 2 2 2h-6c-1.105 0-2-.895-2-2v-12c0-3.314 2.686-6 6-6z" fill="#55525b"/></g><g><path d="m10.5 48c-1.105 0-2 .895-2 2s.895 2 2 2z" fill="#db9e68"/></g><g><path d="m15.5 58h-9c-1.657 0-3 1.343-3 3v3h15v-3c0-1.657-1.343-3-3-3z" fill="#fbbe18"/></g><g><path d="m6.5 58c-1.657 0-3 1.343-3 3v3h6v-3c0-1.657-1.343-3-3-3z" fill="#f68820"/></g></g><path d="m49.5 23.184v-10.184h-2v10.184c-1.163.413-2 1.512-2 2.816 0 1.657 1.343 3 3 3s3-1.343 3-3c0-1.304-.837-2.403-2-2.816z" fill="#fbbe18"/><g><circle cx="48.5" cy="13" fill="#353744" r="1"/></g><g><path d="m53 4.5c0-2.803-2.564-5.008-5.474-4.398-1.741.365-3.128 1.802-3.448 3.552-.287 1.57.245 3.014 1.236 4.003.718.716 1.186 1.643 1.186 2.657v.186h4v-.186c0-1.012.466-1.939 1.183-2.653.812-.809 1.317-1.923 1.317-3.161z" fill="#f68820"/></g><g><path d="m47.5 13h2c.552 0 1-.448 1-1v-1.5h-4v1.5c0 .552.448 1 1 1z" fill="#b3b4b6"/></g><g><path d="m48.5 10.5h2v1.5c0 .552-.448 1-1 1h-1z" fill="#808080"/></g><g><path d="m48.5 2.25c0-.911-.544-1.692-1.323-2.046-1.415.426-2.543 1.56-2.973 2.971.353.78 1.134 1.325 2.046 1.325 1.243 0 2.25-1.007 2.25-2.25z" fill="#fbbe18"/></g><g><path d="m46.5 10.5h2v.5h-2z" fill="#dbdee3"/></g><g><path d="m46.5 11.5h2v.5h-2z" fill="#dbdee3"/></g><g><path d="m48.5 10.5h2v.5h-2z" fill="#b3b4b6"/></g><g><path d="m48.5 11.5h2v.5h-2z" fill="#b3b4b6"/></g><g><path d="m35.146 42.646-1.793-1.793c-.315-.315-.854-.092-.854.354v.793h-6.499c-.276 0-.5.224-.5.5v1c0 .276.224.5.5.5h6.5v.793c0 .445.539.668.854.354l1.793-1.793c.195-.196.195-.512-.001-.708z" fill="#f68820"/></g><g><path d="m33 49h-6.5v-.793c0-.445-.539-.668-.854-.354l-1.793 1.793c-.195.195-.195.512 0 .707l1.793 1.793c.315.315.854.092.854-.354v-.792h6.5c.276 0 .5-.224.5-.5v-1c0-.276-.224-.5-.5-.5z" fill="#f68820"/></g></g></svg>